# xmcd CD database file
#
# Track frame offsets:
#	150
#	15506
#	32218
#	46091
#	63529
#	80018
#	95757
#	110230
#	124539
#	138132
#	150864
#
# Disc length: 2234 seconds
#
# Revision: 0
# Processed by: cddbd v1.5.2PL0 Copyright (c) Steve Scherf et al.
# Submitted via: CDex 1.72
#
DISCID=8708b80b
DTITLE=Michael Thomas - Michael Thomas
DYEAR=1900
DGENRE=Country
TTITLE0=Country Blackbirds
TTITLE1=Do It All With You
TTITLE2=Someone Else Will
TTITLE3=Brown Bottle
TTITLE4=Your Friend
TTITLE5=Big Ol' World
TTITLE6=As Long As You're There
TTITLE7="Gone" Is What She's Gonna Be
TTITLE8=You May Not Remember
TTITLE9=She Makes Me
TTITLE10=She's Let The "Whiskey" Take Control
EXTD=
EXTT0=
EXTT1=
EXTT2=
EXTT3=
EXTT4=
EXTT5=
EXTT6=
EXTT7=
EXTT8=
EXTT9=
EXTT10=
PLAYORDER=
